<?xml version="1.0" encoding="utf-8"?>
<!-- Generator: Adobe Illustrator 18.1.1, SVG Export Plug-In . SVG Version: 6.00 Build 0)  -->
<svg version="1.1" id="Layer_1" xmlns="http://www.w3.org/2000/svg" xmlns:xlink="http://www.w3.org/1999/xlink" x="0px" y="0px"
	 viewBox="0 0 32 32" enable-background="new 0 0 32 32" xml:space="preserve">
<g>
	<rect x="14.2" y="20.6" fill="#FFFFFF" width="3.6" height="3"/>
	<path fill="#FFFFFF" d="M16.2,6C12.4,6,10,8.4,10,11.8h3c0-2.2,1-3.6,3.2-3.4c1,0,2.6,0.6,2.6,2.6c0,1.6-1,2.2-2.2,3
		c-1.4,1.2-2,2.2-2,5h2.8c0-2.4,1-3,2.2-4.2c1.2-1,2.4-1.8,2.4-4C22,7.8,19.4,6,16.2,6z"/>
</g>
<path fill="#F4F4F4" d="M16,0C7.2,0,0,7.2,0,16s7.2,16,16,16s16-7.2,16-16S24.8,0,16,0z M16,30C8.2,30,2,23.8,2,16S8.2,2,16,2
	s14,6.2,14,14S23.8,30,16,30z"/>
</svg>
